<?xml version="1.0" encoding="UTF-8" standalone="no"?>
<svg
   id="Layer_1"
   data-name="Layer 1"
   viewBox="0 0 820.81995 558.13795"
   version="1.1"
   sodipodi:docname="SMG4LOGONEW.svg"
   width="820.81995"
   height="558.138"
   inkscape:version="1.3 (0e150ed6c4, 2023-07-21)"
   xml:space="preserve"
   xmlns:inkscape="http://www.inkscape.org/namespaces/inkscape"
   xmlns:sodipodi="http://sodipodi.sourceforge.net/DTD/sodipodi-0.dtd"
   xmlns="http://www.w3.org/2000/svg"
   xmlns:svg="http://www.w3.org/2000/svg"><sodipodi:namedview
     id="namedview5"
     pagecolor="#505050"
     bordercolor="#eeeeee"
     borderopacity="1"
     inkscape:showpageshadow="0"
     inkscape:pageopacity="0"
     inkscape:pagecheckerboard="0"
     inkscape:deskcolor="#d1d1d1"
     inkscape:zoom="0.76095916"
     inkscape:cx="412.63713"
     inkscape:cy="321.30502"
     inkscape:window-width="1920"
     inkscape:window-height="991"
     inkscape:window-x="-9"
     inkscape:window-y="-9"
     inkscape:window-maximized="1"
     inkscape:current-layer="Layer_1"
     showguides="true" /><defs
     id="defs1"><style
       id="style1">&#10;      .cls-1 {&#10;        fill: #fffbfb;&#10;      }&#10;&#10;      .cls-2 {&#10;        fill: #347dfb;&#10;      }&#10;    </style></defs><g
     id="g1"
     transform="matrix(0.93515913,0,0,0.93515913,-487.23203,-225.35652)"><path
       class="cls-2"
       d="m 1398.748,618.86682 c 0,29.47101 -5.1305,53.23866 -15.034,72.25686 -27.4926,52.79542 -88.4118,68.9895 -152.6957,68.9895 -55.4221,0 -108.275,-12.01221 -128.4664,-16.95856 -1.8414,14.83817 -19.1987,40.46312 -44.7794,61.39564 -27.4721,22.48024 -51.74,33.2692 -77.91408,33.2692 -43.53327,0 -88.94523,-16.61001 -108.83642,-23.13737 C 820.81089,798.20515 809.02071,794.256 760.49331,794.256 c -112.27055,0 -147.38826,22.80649 -196.05619,22.80649 -28.38017,0 -43.42202,-11.70858 -43.42202,-33.2538 0,-19.94204 26.95674,-54.48966 60.88643,-78.87496 39.55298,-28.42675 70.30058,-32.15225 70.30058,-32.15225 C 614.5733,611.62845 598.20839,552.12852 598.107,497.81969 c -0.14102,-75.533 36.72201,-145.22412 89.0939,-186.3961 26.87473,-21.12748 83.42568,-48.6619 146.38365,-62.19568 26.39205,-5.67337 52.35945,-8.24591 80.22744,-8.24591 121.45201,0 255.64821,77.0408 345.35601,227.65298 0,0 68.7528,-16.95755 109.9982,36.17099 17.6896,22.78609 29.5818,58.91409 29.5818,114.06085 z"
       id="path1-1"
       style="font-variation-settings:normal;display:inline;opacity:1;vector-effect:none;fill:#367dfb;fill-opacity:1;stroke-width:1.61791;stroke-linecap:butt;stroke-linejoin:miter;stroke-miterlimit:4;stroke-dasharray:none;stroke-dashoffset:0;stroke-opacity:1;-inkscape-stroke:none;stop-color:#000000;stop-opacity:1"
       sodipodi:nodetypes="ssscssssssscsssscss" /><path
       class="cls-1"
       d="m 959.43509,544.77878 c 0,0 -36.18021,80.163 -47.91906,105.31448 -8.85544,18.97353 -22.15569,57.72219 -22.15569,57.72219 0,0 -57.95097,-5.53706 -90.94385,-6.98611 -79.36508,-3.48574 -106.70055,-0.77666 -106.70055,-0.77666 0,0 -16.33302,-29.45551 -36.72408,-83.45729 -13.50475,-35.76469 -17.65705,-60.56058 -17.65705,-60.56058 0,0 16.1212,-32.1119 69.7695,-83.89677 56.86821,-54.89294 90.49523,-65.99219 90.49523,-65.99219 0,0 15.36587,3.32573 69.33805,49.55983 87.95241,75.34251 92.4975,89.0731 92.4975,89.0731 z"
       id="path2-8"
       style="display:inline;fill:#ffffff;stroke-width:1.62882"
       sodipodi:nodetypes="cscscscscsc" /><path
       id="path5-3-1-2"
       style="font-variation-settings:normal;display:inline;opacity:1;vector-effect:none;fill:#367dfb;fill-opacity:1;stroke-width:1.61791;stroke-linecap:butt;stroke-linejoin:miter;stroke-miterlimit:4;stroke-dasharray:none;stroke-dashoffset:0;stroke-opacity:1;-inkscape-stroke:none;stop-color:#000000;stop-opacity:1"
       class="cls-2"
       d="m 706.066,496.00112 v 24.73856 l -15.76312,-2.4e-4 v 16.56712 H 706.066 v 30.37156 l -34.74164,-2.4e-4 V 583.946 H 706.066 v 16.91079 l 84.054,-2.4e-4 v 41.50192 h -26.03434 v -21.40059 l -58.01966,2.4e-4 v 32.64952 l -15.76312,-2.4e-4 v 16.36696 l 15.76312,2.4e-4 v 14.98652 l 142.33661,-2.4e-4 v -66.67326 h 15.3859 v -15.76724 h -15.3859 V 578.944 H 764.08566 V 538.54554 H 790.12 v 20.91292 h 58.28261 V 547.839 H 876.557 v -16.567 h -28.15439 v -35.27112 z m 153.95563,7.24788 v 16.76749 H 876.557 V 503.249 Z"
       sodipodi:nodetypes="cccccccccccccccccccccccccccccccccccccccccc" /><path
       style="font-size:173.333px;font-family:Riffic;-inkscape-font-specification:Riffic;letter-spacing:0px;display:inline;fill:#ffffff;stroke-width:1.0818;paint-order:stroke fill markers"
       d="M 1345.5004,607.08285 V 647.047 l -19.3575,-1.449 -0.5717,31.28351 -39.7214,1.10699 0.7624,-34.737 -50.1217,-2.76748 -1.1436,-106.15543 40.4315,-2.21397 1.1731,72.20438 h 10.3132 l 0.872,-32.12062 39.4195,-10.1474 v 43.98426 z"
       id="path4-1"
       sodipodi:nodetypes="ccccccccccccccc" /><path
       id="path5-0"
       style="color:#000000;-inkscape-font-specification:Riffic;font-variation-settings:normal;display:inline;opacity:1;vector-effect:none;fill:#367dfb;fill-opacity:1;stroke-width:1.61791;stroke-linecap:butt;stroke-linejoin:miter;stroke-miterlimit:4;stroke-dasharray:none;stroke-dashoffset:0;stroke-opacity:1;-inkscape-stroke:none;paint-order:stroke fill markers;stop-color:#000000;stop-opacity:1"
       d="m 1017.9414,512.59575 a 19.669098,19.222791 0 0 0 -18.75248,12.21592 l -14.95408,37.36927 -15.22584,-35.464 a 19.669098,19.222791 0 0 0 -17.36582,-11.76835 l -42.91912,-1.64385 a 19.669098,19.222791 0 0 0 -20.43452,18.87286 l -2.5701,144.07913 a 19.669098,19.222791 0 0 0 18.81242,19.53792 l 39.50375,1.66895 a 19.669098,19.222791 0 0 0 12.88045,-4.80187 19.669098,19.222791 0 0 0 12.33048,4.76841 L 1001.911,697.244 a 19.669098,19.222791 0 0 0 11.9966,-4.53208 19.669098,19.222791 0 0 0 13.8305,5.5506 l 40.0709,-1.85508 a 19.669098,19.222791 0 0 0 18.7183,-20.03778 l -6.452,-144.46814 a 19.669098,19.222791 0 0 0 -19.2148,-18.37718 z" /><path
       style="font-size:173.333px;font-family:Riffic;-inkscape-font-specification:Riffic;letter-spacing:0px;display:inline;fill:#ffffff;stroke-width:1.08078;paint-order:stroke fill markers"
       d="m 1215.0589,595.49299 c 2.5292,6.16686 3.7153,13.4999 3.7153,20.53011 0,10.62288 -2.5998,21.45141 -8.2346,31.15261 -11.1653,19.22254 -32.8957,34.01894 -59.5948,34.01894 -39.8912,0 -74.7598,-33.15986 -74.7598,-76.2719 0,-13.19707 3.2881,-26.62609 9.8641,-37.72643 12.6091,-21.28408 35.7415,-37.46409 65.8442,-37.46409 26.9864,0 52.206,14.08398 57.0975,27.65878 l -26.662,21.8318 c -9.8864,-8.52952 -22.7827,-9.85585 -27.7799,-9.85585 -21.9134,0 -37.6106,15.4284 -37.6106,36.11081 0,18.48723 13.052,35.63493 33.627,35.63493 7.1162,0 25.4922,-1.87391 30.1318,-17.71113 l -36.2021,-4.25515 6.4498,-31.51473 z"
       id="path3-9"
       sodipodi:nodetypes="cssssssccssscccc" /><path
       style="font-size:173.333px;font-family:Riffic;-inkscape-font-specification:Riffic;letter-spacing:0px;display:inline;fill:#ffffff;stroke-width:1.07561;paint-order:stroke fill markers"
       d="m 1063.5826,677.25758 -39.8294,2.11987 -3.8617,-57.07239 -21.31657,55.19445 -32.66351,1.12372 -23.18563,-56.00503 -1.41811,55.67994 -39.47164,-1.64849 2.56915,-143.69214 42.69936,1.80896 34.53978,78.90825 32.60377,-81.21941 42.6996,1.10395 z"
       id="text1-2"
       sodipodi:nodetypes="cccccccccccccc" /></g></svg>
